<svg xmlns="http://www.w3.org/2000/svg" viewBox="0 0 410.8 108.0" width="411" height="108"><g transform="translate(14,14) scale(0.8)"><path d="M 46.9 0.3 L 0.3 47.1 H 19.4 L 31.5 34.7 V 53.1 H 9.5 L 21.8 65.3 H 30.9 V 83.9 L 46.9 99.8 V 99.1 V 0.3 Z" fill="#1E1C1A"></path><path d="M 53.1 0.3 L 99.7 47.1 H 80.6 L 68.5 34.7 V 53.1 H 90.5 L 78.2 65.3 H 69.1 V 83.9 L 53.1 99.8 V 99.1 V 0.3 Z" fill="#1E1C1A"></path></g><g transform="translate(116.44,69.64) scale(0.4469)"><path d="M41.90-57Q41.90-56.50 41.55-56.15Q41.20-55.80 40.70-55.80L40.70-55.80L20.60-55.80Q20.10-55.80 20.10-55.30L20.10-55.30L20.10-42.70Q20.10-42.20 20.60-42.20L20.60-42.20L31.60-42.20Q32.10-42.20 32.45-41.85Q32.80-41.50 32.80-41L32.80-41L32.80-29.10Q32.80-28.60 32.45-28.25Q32.10-27.90 31.60-27.90L31.60-27.90L20.60-27.90Q20.10-27.90 20.10-27.40L20.10-27.40L20.10-1.20Q20.10-0.70 19.75-0.35Q19.40 0 18.90 0L18.90 0L4.70 0Q4.20 0 3.85-0.35Q3.50-0.70 3.50-1.20L3.50-1.20L3.50-68.80Q3.50-69.30 3.85-69.65Q4.20-70 4.70-70L4.70-70L40.70-70Q41.20-70 41.55-69.65Q41.90-69.30 41.90-68.80L41.90-68.80L41.90-57Z M68.60 0.80Q58.90 0.80 53.15-4.80Q47.40-10.40 47.40-19.90L47.40-19.90L47.40-50.10Q47.40-59.50 53.15-65.15Q58.90-70.80 68.60-70.80L68.60-70.80Q78.20-70.80 84.05-65.15Q89.90-59.50 89.90-50.10L89.90-50.10L89.90-19.90Q89.90-10.40 84.05-4.80Q78.20 0.80 68.60 0.80L68.60 0.80ZM68.60-13.40Q70.80-13.40 72.05-14.95Q73.30-16.50 73.30-19.20L73.30-19.20L73.30-50.80Q73.30-53.50 72.05-55.05Q70.80-56.60 68.60-56.60L68.60-56.60Q66.40-56.60 65.20-55.05Q64-53.50 64-50.80L64-50.80L64-19.20Q64-16.50 65.20-14.95Q66.40-13.40 68.60-13.40L68.60-13.40Z M125.40 0Q124.30 0 124.00-1L124.00-1L117.20-27.50Q117.10-27.90 116.70-27.90L116.70-27.90L115.20-27.90Q114.70-27.90 114.70-27.40L114.70-27.40L114.70-1.20Q114.70-0.70 114.35-0.35Q114.00 0 113.50 0L113.50 0L99.30 0Q98.80 0 98.45-0.35Q98.10-0.70 98.10-1.20L98.10-1.20L98.10-68.80Q98.10-69.30 98.45-69.65Q98.80-70 99.30-70L99.30-70L120.80-70Q126.60-70 131.10-67.25Q135.60-64.50 138.05-59.55Q140.50-54.60 140.50-48.30L140.50-48.30Q140.50-42.70 138.45-38.25Q136.40-33.80 132.70-31.10L132.70-31.10Q132.50-31 132.40-30.85Q132.30-30.70 132.40-30.50L132.40-30.50L141-1.40L141.10-1Q141.10 0 140 0L140 0L125.40 0ZM115.20-55.80Q114.70-55.80 114.70-55.30L114.70-55.30L114.70-41.10Q114.70-40.60 115.20-40.60L115.20-40.60L118.00-40.60Q120.70-40.60 122.30-42.60Q123.90-44.60 123.90-48.10L123.90-48.10Q123.90-51.80 122.30-53.80Q120.70-55.80 118.00-55.80L118.00-55.80L115.20-55.80Z M168.30 0.80Q158.80 0.80 153.10-4.55Q147.40-9.90 147.40-18.90L147.40-18.90L147.40-51.20Q147.40-60.20 153.10-65.50Q158.80-70.80 168.30-70.80L168.30-70.80Q177.80-70.80 183.55-65.40Q189.30-60 189.30-51L189.30-51L189.30-47.30Q189.30-46.80 188.95-46.45Q188.60-46.10 188.10-46.10L188.10-46.10L173.90-46.10Q173.40-46.10 173.05-46.45Q172.70-46.80 172.70-47.30L172.70-47.30L172.70-51.20Q172.70-53.60 171.50-55.10Q170.30-56.60 168.30-56.60L168.30-56.60Q166.40-56.60 165.20-55.10Q164.00-53.60 164.00-51.20L164.00-51.20L164.00-18.80Q164.00-16.40 165.20-14.90Q166.40-13.40 168.30-13.40L168.30-13.40Q170.30-13.40 171.50-14.90Q172.70-16.40 172.70-18.80L172.70-18.80L172.70-25.20Q172.70-25.70 172.20-25.70L172.20-25.70L169.60-25.70Q169.10-25.70 168.75-26.05Q168.40-26.40 168.40-26.90L168.40-26.90L168.40-37.50Q168.40-38 168.75-38.35Q169.10-38.70 169.60-38.70L169.60-38.70L188.10-38.70Q188.60-38.70 188.95-38.35Q189.30-38 189.30-37.50L189.30-37.50L189.30-18.90Q189.30-9.90 183.55-4.55Q177.80 0.80 168.30 0.80L168.30 0.80Z M235.90-57Q235.90-56.50 235.55-56.15Q235.20-55.80 234.70-55.80L234.70-55.80L214.60-55.80Q214.10-55.80 214.10-55.30L214.10-55.30L214.10-42.70Q214.10-42.20 214.60-42.20L214.60-42.20L225.60-42.20Q226.10-42.20 226.45-41.85Q226.80-41.50 226.80-41L226.80-41L226.80-29.10Q226.80-28.60 226.45-28.25Q226.10-27.90 225.60-27.90L225.60-27.90L214.60-27.90Q214.10-27.90 214.10-27.40L214.10-27.40L214.10-14.70Q214.10-14.20 214.60-14.20L214.60-14.20L234.70-14.20Q235.20-14.20 235.55-13.85Q235.90-13.50 235.90-13L235.90-13L235.90-1.20Q235.90-0.70 235.55-0.35Q235.20 0 234.70 0L234.70 0L198.70 0Q198.20 0 197.85-0.35Q197.50-0.70 197.50-1.20L197.50-1.20L197.50-68.80Q197.50-69.30 197.85-69.65Q198.20-70 198.70-70L198.70-70L234.70-70Q235.20-70 235.55-69.65Q235.90-69.30 235.90-68.80L235.90-68.80L235.90-57Z M304-57Q304-56.50 303.65-56.15Q303.30-55.80 302.80-55.80L302.80-55.80L282.70-55.80Q282.20-55.80 282.20-55.30L282.20-55.30L282.20-42.70Q282.20-42.20 282.70-42.20L282.70-42.20L293.70-42.20Q294.20-42.20 294.55-41.85Q294.90-41.50 294.90-41L294.90-41L294.90-29.10Q294.90-28.60 294.55-28.25Q294.20-27.90 293.70-27.90L293.70-27.90L282.70-27.90Q282.20-27.90 282.20-27.40L282.20-27.40L282.20-1.20Q282.20-0.70 281.85-0.35Q281.50 0 281 0L281 0L266.80 0Q266.30 0 265.95-0.35Q265.60-0.70 265.60-1.20L265.60-1.20L265.60-68.80Q265.60-69.30 265.95-69.65Q266.30-70 266.80-70L266.80-70L302.80-70Q303.30-70 303.65-69.65Q304-69.30 304-68.80L304-68.80L304-57Z M330.70 0.80Q321 0.80 315.25-4.80Q309.50-10.40 309.50-19.90L309.50-19.90L309.50-50.10Q309.50-59.50 315.25-65.15Q321-70.80 330.70-70.80L330.70-70.80Q340.30-70.80 346.15-65.15Q352-59.50 352-50.10L352-50.10L352-19.90Q352-10.40 346.15-4.80Q340.30 0.80 330.70 0.80L330.70 0.80ZM330.70-13.40Q332.90-13.40 334.15-14.95Q335.40-16.50 335.40-19.20L335.40-19.20L335.40-50.80Q335.40-53.50 334.15-55.05Q332.90-56.60 330.70-56.60L330.70-56.60Q328.50-56.60 327.30-55.05Q326.10-53.50 326.10-50.80L326.10-50.80L326.10-19.20Q326.10-16.50 327.30-14.95Q328.50-13.40 330.70-13.40L330.70-13.40Z M387.50 0Q386.40 0 386.10-1L386.10-1L379.30-27.50Q379.20-27.90 378.80-27.90L378.80-27.90L377.30-27.90Q376.80-27.90 376.80-27.40L376.80-27.40L376.80-1.20Q376.80-0.70 376.45-0.35Q376.10 0 375.60 0L375.60 0L361.40 0Q360.90 0 360.55-0.35Q360.20-0.70 360.20-1.20L360.20-1.20L360.20-68.80Q360.20-69.30 360.55-69.65Q360.90-70 361.40-70L361.40-70L382.90-70Q388.70-70 393.20-67.25Q397.70-64.50 400.15-59.55Q402.60-54.60 402.60-48.30L402.60-48.30Q402.60-42.70 400.55-38.25Q398.50-33.80 394.80-31.10L394.80-31.10Q394.60-31 394.50-30.85Q394.40-30.70 394.50-30.50L394.50-30.50L403.10-1.40L403.20-1Q403.20 0 402.10 0L402.10 0L387.50 0ZM377.30-55.80Q376.80-55.80 376.80-55.30L376.80-55.30L376.80-41.10Q376.80-40.60 377.30-40.60L377.30-40.60L380.10-40.60Q382.80-40.60 384.40-42.60Q386.00-44.60 386.00-48.10L386.00-48.10Q386.00-51.80 384.40-53.80Q382.80-55.80 380.10-55.80L380.10-55.80L377.30-55.80Z M423.50 0Q422.40 0 422.20-1.10L422.20-1.10L408.60-68.70L408.50-69.10Q408.50-70 409.60-70L409.60-70L424.30-70Q425.50-70 425.60-68.90L425.60-68.90L430.10-36Q430.20-35.70 430.40-35.70Q430.60-35.70 430.70-36L430.70-36L435.20-68.90Q435.30-70 436.50-70L436.50-70L448.20-70Q449.40-70 449.50-68.90L449.50-68.90L454.50-36Q454.60-35.70 454.80-35.70Q455.00-35.70 455.00-36L455.00-36L459.10-68.90Q459.20-70 460.30-70L460.30-70L474.70-70Q476.00-70 475.80-68.70L475.80-68.70L462.90-1.10Q462.80 0 461.60 0L461.60 0L448.80 0Q447.60 0 447.50-1.10L447.50-1.10L442.50-35.30Q442.40-35.60 442.15-35.60Q441.90-35.60 441.90-35.30L441.90-35.30L437.50-1.10Q437.40 0 436.30 0L436.30 0L423.50 0Z M513.30 0Q512.10 0 512-1.10L512-1.10L510.70-9.80Q510.70-10.30 510.10-10.30L510.10-10.30L499.30-10.30Q498.70-10.30 498.70-9.80L498.70-9.80L497.50-1.10Q497.40 0 496.20 0L496.20 0L482.00 0Q480.70 0 481.00-1.30L481.00-1.30L495.50-68.90Q495.70-70 496.80-70L496.80-70L513.10-70Q514.20-70 514.40-68.90L514.40-68.90L528.80-1.30L528.90-0.90Q528.90 0 527.80 0L527.80 0L513.30 0ZM500.90-23.60Q500.90-23.10 501.30-23.10L501.30-23.10L508.00-23.10Q508.40-23.10 508.40-23.60L508.40-23.60L504.80-46.40Q504.70-46.80 504.50-46.80Q504.30-46.80 504.20-46.40L504.20-46.40L500.90-23.60Z M563.10 0Q562.00 0 561.70-1L561.70-1L554.90-27.50Q554.80-27.90 554.40-27.90L554.40-27.90L552.90-27.90Q552.40-27.90 552.40-27.40L552.40-27.40L552.40-1.20Q552.40-0.70 552.05-0.35Q551.70 0 551.20 0L551.20 0L537.00 0Q536.50 0 536.15-0.35Q535.80-0.70 535.80-1.20L535.80-1.20L535.80-68.80Q535.80-69.30 536.15-69.65Q536.50-70 537.00-70L537.00-70L558.50-70Q564.30-70 568.80-67.25Q573.30-64.50 575.75-59.55Q578.20-54.60 578.20-48.30L578.20-48.30Q578.20-42.70 576.15-38.25Q574.10-33.80 570.40-31.10L570.40-31.10Q570.20-31 570.10-30.85Q570.00-30.70 570.10-30.50L570.10-30.50L578.70-1.40L578.80-1Q578.80 0 577.70 0L577.70 0L563.10 0ZM552.90-55.80Q552.40-55.80 552.40-55.30L552.40-55.30L552.40-41.10Q552.40-40.60 552.90-40.60L552.90-40.60L555.70-40.60Q558.40-40.60 560.00-42.60Q561.60-44.60 561.60-48.10L561.60-48.10Q561.60-51.80 560.00-53.80Q558.40-55.80 555.70-55.80L555.70-55.80L552.90-55.80Z M587.10 0Q586.60 0 586.25-0.35Q585.90-0.70 585.90-1.20L585.90-1.20L585.90-68.80Q585.90-69.30 586.25-69.65Q586.60-70 587.10-70L587.10-70L606.20-70Q615.80-70 621.60-64.60Q627.40-59.20 627.40-50.30L627.40-50.30L627.40-19.70Q627.40-10.80 621.60-5.40Q615.80 0 606.20 0L606.20 0L587.10 0ZM602.50-14.70Q602.50-14.20 603.00-14.20L603.00-14.20L605.80-14.30Q607.90-14.40 609.30-16.15Q610.70-17.90 610.80-20.80L610.80-20.80L610.80-49.20Q610.80-52.20 609.40-54Q608.00-55.80 605.70-55.80L605.70-55.80L603.00-55.80Q602.50-55.80 602.50-55.30L602.50-55.30L602.50-14.70Z" fill="#1E1C1A"></path></g></svg>